<?xml version="1.0" encoding="utf-8"?>
<!-- Generator: Adobe Illustrator 15.0.0, SVG Export Plug-In . SVG Version: 6.00 Build 0)  -->
<!DOCTYPE svg PUBLIC "-//W3C//DTD SVG 1.1//EN" "http://www.w3.org/Graphics/SVG/1.1/DTD/svg11.dtd">
<svg version="1.1" id="Layer_1" xmlns="http://www.w3.org/2000/svg" xmlns:xlink="http://www.w3.org/1999/xlink" x="0px" y="0px"
	 width="202px" height="70px" viewBox="4 5.001 202 70" enable-background="new 4 5.001 202 70" xml:space="preserve">
<g>
	<g>
		<path fill="#FFFFFF" d="M34.423,51.071c0,0.357-0.287,0.573-0.788,0.573h-7.446c-0.215,0-0.429-0.144-0.572-0.358l-5.512-9.354
			c-0.143-0.287-0.358-0.43-0.573-0.43c-0.215,0-0.358,0.143-0.501,0.43l-5.441,9.354c-0.143,0.215-0.357,0.358-0.572,0.358H5.716
			C5.215,51.645,5,51.429,5,51.071c0-0.214,0.215-0.572,0.43-0.931l8.232-14.295c0.358-0.573,0.5-0.858,0.5-1.146
			c0-0.286-0.143-0.644-0.429-1.145L5.93,20.169c-0.356-0.644-0.644-1.074-0.644-1.36c0-0.357,0.287-0.572,0.788-0.572h6.872
			c0.215,0,0.501,0.143,0.644,0.357l5.369,8.662c0.215,0.286,0.43,0.5,0.644,0.5c0.215,0,0.43-0.215,0.645-0.5l5.369-8.662
			c0.143-0.215,0.357-0.357,0.644-0.357h8.019c0.501,0,0.716,0.215,0.716,0.572c0,0.287-0.143,0.501-0.43,0.931l-9.091,13.959
			c-0.287,0.43-0.43,0.716-0.43,1.002c0,0.287,0.143,0.501,0.43,0.931l8.448,14.438C34.208,50.499,34.423,50.857,34.423,51.071z"/>
		<path fill="#FFFFFF" d="M51.055,52.359c-8.161,0-13.387-5.226-13.387-12.669v-8.877c0-7.445,5.226-12.67,13.387-12.67
			c8.089,0,13.314,5.226,13.314,12.67v8.877C64.369,47.134,59.144,52.359,51.055,52.359z M56.137,30.813
			c0-2.863-2.219-5.154-5.083-5.154c-2.936,0-5.154,2.362-5.154,5.154v8.877c0,2.792,2.219,5.154,5.154,5.154
			c2.863,0,5.083-2.292,5.083-5.154V30.813z"/>
		<path fill="#FFFFFF" d="M107.18,15.422c-2.578,0-4.796-2.219-4.796-4.796s2.219-4.796,4.796-4.796
			c2.577,0,4.797,2.219,4.797,4.796S109.757,15.422,107.18,15.422z M110.544,51.645h-6.729c-0.501,0-0.716-0.216-0.716-0.717V18.952
			c0-0.501,0.215-0.716,0.716-0.716h6.729c0.501,0,0.716,0.215,0.716,0.716v31.976C111.26,51.429,111.045,51.645,110.544,51.645z"/>
		<path fill="#FFFFFF" d="M133.954,52.359c-1.36,0-3.938-0.428-6.085-1.288c-4.939-2.005-7.516-6.156-7.516-11.382V27.09
			c0-0.501-0.216-0.716-0.717-0.716h-3.723c-0.501,0-0.716-0.215-0.716-0.645c0-0.429,0.071-1.933,0.143-3.865l8.232-7.972
			c0.215-0.214,0.501-0.429,0.858-0.429h3.364c0.501,0,0.716,0.215,0.716,0.716v4.726c0,0.501,0.215,0.716,0.717,0.716h4.725
			c0.501,0,0.715,0.215,0.715,0.716v5.323c0,0.501-0.214,0.716-0.715,0.716h-4.725c-0.502,0-0.717,0.214-0.717,0.716V39.69
			c0,2.578,1.79,4.796,5.512,5.083c0.431,0,0.645,0.285,0.645,0.716v6.155C134.669,52.145,134.383,52.359,133.954,52.359z"/>
		<path fill="#FFFFFF" d="M88.433,47.848H80.62c-0.95,0-1.607-0.877-1.607-2.19c0-1.241,0.73-2.044,1.461-2.044h1.752
			c7.594,0,13.582-5.039,13.582-12.632v-5.262h1.601c0.501,0,0.715-0.215,0.715-0.716v-6.085c0-0.501-0.214-0.716-0.715-0.716
			h-2.331h-2.394h-3.813h-6.645c-7.667,0-13.655,4.527-13.655,12.121v1.021c0,3.724,1.605,6.499,4.016,8.835
			c0.146,0.146,0.219,0.292,0.219,0.511c0,0.438-1.605,1.459-1.605,4.453c0,2.703,1.388,3.433,1.388,4.09
			c0,0.219-0.146,0.438-0.292,0.584c-2.191,1.68-3.724,4.089-3.724,7.082v2.117c0,5.842,4.6,9.055,10.515,9.055h9.347
			c5.915,0,10.515-3.213,10.515-9.055V56.9C98.948,50.987,94.347,47.848,88.433,47.848z M76.969,30.322
			c0-2.921,2.264-5.039,5.257-5.039c2.921,0,5.184,2.118,5.184,5.039v1.021c0,2.921-2.263,4.747-5.184,4.747
			c-2.994,0-5.257-1.898-5.257-4.747V30.322z M90.55,59.02c0,1.095-0.876,2.116-2.118,2.116h-9.347
			c-1.241,0-2.117-1.021-2.117-2.116v-2.117c0-1.242,0.876-2.118,2.117-2.118h9.347c1.241,0,2.118,0.876,2.118,2.118V59.02z"/>
		<path fill="#FFFFFF" d="M152.854,52.359c-8.16,0-13.387-5.226-13.387-12.669v-8.877c0-7.445,5.227-12.67,13.387-12.67
			c8.09,0,13.314,5.226,13.314,12.67v8.877C166.168,47.134,160.943,52.359,152.854,52.359z M157.936,30.813
			c0-2.863-2.219-5.154-5.082-5.154c-2.936,0-5.154,2.362-5.154,5.154v8.877c0,2.792,2.219,5.154,5.154,5.154
			c2.863,0,5.082-2.292,5.082-5.154V30.813z"/>
	</g>
	<g>
		<path fill="#FFFFFF" d="M105.869,70.215c0,0.214-0.071,0.393-0.214,0.535c-0.144,0.143-0.326,0.213-0.55,0.213
			c-0.204,0-0.376-0.074-0.519-0.221c-0.143-0.148-0.214-0.323-0.214-0.527s0.071-0.379,0.214-0.527
			c0.143-0.146,0.315-0.221,0.519-0.221c0.224,0,0.407,0.071,0.55,0.213C105.798,69.822,105.869,70.001,105.869,70.215z"/>
		<path fill="#FFFFFF" d="M108.908,70.215c0,0.214-0.072,0.393-0.214,0.535c-0.144,0.143-0.326,0.213-0.55,0.213
			c-0.205,0-0.377-0.074-0.52-0.221c-0.143-0.148-0.214-0.323-0.214-0.527s0.071-0.379,0.214-0.527
			c0.143-0.146,0.314-0.221,0.52-0.221c0.224,0,0.406,0.071,0.55,0.213C108.836,69.823,108.908,70.001,108.908,70.215z"/>
		<path fill="#FFFFFF" d="M111.947,70.215c0,0.214-0.072,0.393-0.215,0.535s-0.325,0.213-0.549,0.213
			c-0.203,0-0.377-0.074-0.52-0.221c-0.143-0.148-0.214-0.323-0.214-0.527s0.071-0.379,0.214-0.527
			c0.142-0.146,0.314-0.221,0.52-0.221c0.225,0,0.407,0.071,0.549,0.213C111.875,69.823,111.947,70.001,111.947,70.215z"/>
		<path fill="#FFFFFF" d="M116.939,65.068c-0.061,0-0.14-0.008-0.235-0.022c-0.097-0.015-0.211-0.022-0.343-0.022
			c-0.235,0-0.451,0.041-0.649,0.121c-0.199,0.082-0.37,0.196-0.512,0.344c-0.144,0.147-0.255,0.318-0.336,0.512
			c-0.082,0.193-0.123,0.402-0.123,0.626v3.956c0,0.102-0.05,0.152-0.15,0.152h-0.722c-0.102,0-0.151-0.051-0.151-0.152v-6.445
			c0-0.102,0.05-0.152,0.151-0.152h0.556c0.101,0,0.151,0.052,0.151,0.152V64.9c0,0.111,0.04,0.166,0.121,0.166
			s0.191-0.08,0.335-0.243c0.142-0.164,0.351-0.356,0.626-0.581c0.082-0.071,0.191-0.133,0.329-0.184
			c0.137-0.051,0.262-0.076,0.375-0.076h0.563c0.103,0,0.153,0.051,0.153,0.151v0.779C117.078,65.018,117.033,65.068,116.939,65.068
			z"/>
		<path fill="#FFFFFF" d="M122.518,70.734h-0.557c-0.101,0-0.15-0.051-0.15-0.152v-0.657c0-0.122-0.041-0.183-0.121-0.183
			c-0.082,0-0.191,0.072-0.329,0.214c-0.138,0.144-0.329,0.315-0.574,0.519c-0.103,0.082-0.22,0.146-0.353,0.191
			c-0.134,0.046-0.25,0.068-0.354,0.068h-0.613c-0.583,0-1.05-0.168-1.402-0.504c-0.354-0.336-0.528-0.764-0.528-1.282v-0.093
			c0-0.519,0.175-0.943,0.528-1.274c0.354-0.33,0.819-0.496,1.402-0.496h2.023c0.103,0,0.152-0.051,0.152-0.153l-0.016-0.61
			c-0.01-0.458-0.166-0.837-0.467-1.138c-0.303-0.301-0.688-0.451-1.158-0.451c-0.398,0-0.741,0.134-1.027,0.397
			c-0.164,0.144-0.28,0.265-0.353,0.367s-0.133,0.153-0.185,0.153c-0.03,0-0.057-0.006-0.076-0.017l-0.645-0.335
			c-0.062-0.031-0.091-0.066-0.091-0.107c0-0.123,0.056-0.26,0.167-0.411c0.112-0.153,0.27-0.298,0.475-0.437
			c0.202-0.138,0.449-0.252,0.74-0.344c0.29-0.091,0.618-0.137,0.985-0.137c0.825,0,1.476,0.224,1.955,0.672
			c0.479,0.447,0.718,1.043,0.718,1.787v4.261C122.668,70.684,122.618,70.734,122.518,70.734z M121.645,67.955
			c0-0.102-0.051-0.152-0.152-0.152h-2.026c-0.256,0-0.471,0.086-0.645,0.26c-0.175,0.174-0.261,0.388-0.261,0.642v0.244
			c0,0.255,0.088,0.471,0.268,0.649c0.179,0.178,0.392,0.268,0.638,0.268h0.613c0.614,0,1.131-0.438,1.55-1.313l0.016-0.321V67.955z
			"/>
		<path fill="#FFFFFF" d="M129.298,70.734h-0.556c-0.1,0-0.15-0.051-0.15-0.152v-0.657c0-0.11-0.041-0.167-0.121-0.167
			c-0.051,0-0.111,0.036-0.184,0.107c-0.071,0.07-0.168,0.162-0.291,0.275c-0.174,0.151-0.354,0.289-0.536,0.411
			c-0.185,0.123-0.46,0.183-0.828,0.183c-0.358,0-0.688-0.061-0.989-0.183c-0.301-0.122-0.563-0.292-0.789-0.512
			c-0.226-0.219-0.4-0.483-0.528-0.794s-0.192-0.648-0.192-1.016v-1.756c0-0.356,0.063-0.688,0.184-0.994
			c0.123-0.305,0.293-0.566,0.507-0.785c0.215-0.219,0.468-0.394,0.759-0.521c0.292-0.127,0.605-0.19,0.943-0.19
			c0.184,0,0.345,0.018,0.482,0.053c0.139,0.036,0.248,0.08,0.33,0.13c0.276,0.183,0.485,0.356,0.628,0.519
			c0.144,0.164,0.255,0.244,0.337,0.244s0.123-0.056,0.123-0.168v-3.48c0-0.103,0.051-0.153,0.15-0.153h0.722
			c0.101,0,0.151,0.051,0.151,0.153v9.301C129.449,70.684,129.398,70.734,129.298,70.734z M128.426,66.473
			c0-0.213-0.044-0.419-0.131-0.617c-0.087-0.199-0.202-0.373-0.345-0.52c-0.145-0.148-0.317-0.265-0.522-0.352
			c-0.205-0.088-0.419-0.131-0.644-0.131c-0.235,0-0.453,0.043-0.652,0.131c-0.2,0.086-0.371,0.201-0.514,0.343
			c-0.144,0.143-0.256,0.313-0.338,0.512c-0.082,0.199-0.123,0.41-0.123,0.634v1.756c0,0.225,0.041,0.437,0.123,0.635
			c0.082,0.199,0.196,0.371,0.345,0.52c0.148,0.147,0.32,0.266,0.514,0.352c0.194,0.087,0.409,0.13,0.646,0.13
			c0.225,0,0.438-0.043,0.644-0.13c0.205-0.086,0.378-0.203,0.522-0.352c0.143-0.148,0.258-0.32,0.345-0.52
			c0.087-0.198,0.131-0.41,0.131-0.635V66.473z"/>
		<path fill="#FFFFFF" d="M132.641,61.632c0,0.183-0.065,0.343-0.197,0.481c-0.133,0.137-0.297,0.205-0.489,0.205
			c-0.183,0-0.338-0.063-0.465-0.19c-0.128-0.127-0.191-0.293-0.191-0.496c0-0.184,0.066-0.341,0.199-0.474s0.285-0.198,0.458-0.198
			c0.204,0,0.369,0.063,0.497,0.19S132.641,61.438,132.641,61.632z M132.322,70.734H131.6c-0.101,0-0.15-0.051-0.15-0.152v-6.445
			c0-0.102,0.05-0.152,0.15-0.152h0.723c0.1,0,0.15,0.052,0.15,0.152v6.445C132.473,70.684,132.422,70.734,132.322,70.734z"/>
		<path fill="#FFFFFF" d="M139.102,69.543c0,0.122-0.058,0.262-0.168,0.42c-0.111,0.158-0.272,0.307-0.481,0.443
			c-0.208,0.138-0.458,0.252-0.749,0.344c-0.29,0.091-0.613,0.137-0.969,0.137c-0.815,0-1.459-0.226-1.934-0.68
			c-0.473-0.453-0.709-1.061-0.709-1.825V66.32c0-0.764,0.236-1.369,0.709-1.817c0.475-0.448,1.118-0.672,1.934-0.672
			c0.355,0,0.679,0.046,0.969,0.138c0.291,0.092,0.54,0.204,0.749,0.336c0.209,0.133,0.372,0.275,0.489,0.428
			c0.117,0.153,0.175,0.291,0.175,0.412c0,0.052-0.035,0.092-0.106,0.123l-0.642,0.32c-0.021,0.01-0.041,0.016-0.062,0.016
			c-0.041,0-0.082-0.021-0.121-0.062c-0.112-0.103-0.22-0.204-0.321-0.306c-0.103-0.103-0.208-0.193-0.32-0.275
			c-0.112-0.081-0.231-0.145-0.358-0.191c-0.127-0.045-0.277-0.067-0.45-0.067c-0.235,0-0.451,0.043-0.649,0.13
			s-0.369,0.201-0.512,0.344c-0.144,0.143-0.254,0.313-0.336,0.512c-0.082,0.197-0.122,0.41-0.122,0.634v2.062
			c0,0.225,0.041,0.436,0.122,0.635c0.082,0.198,0.195,0.371,0.344,0.52c0.146,0.148,0.318,0.265,0.511,0.352
			c0.193,0.088,0.407,0.129,0.643,0.129c0.376,0,0.712-0.137,1.007-0.412c0.163-0.152,0.283-0.276,0.359-0.373
			c0.076-0.098,0.14-0.146,0.19-0.146c0.03,0,0.056,0.006,0.076,0.016l0.642,0.321C139.07,69.441,139.102,69.482,139.102,69.543z"/>
		<path fill="#FFFFFF" d="M144.83,70.734h-0.557c-0.1,0-0.15-0.051-0.15-0.152v-0.657c0-0.122-0.04-0.183-0.12-0.183
			c-0.082,0-0.19,0.072-0.33,0.214c-0.138,0.144-0.33,0.315-0.575,0.519c-0.103,0.082-0.22,0.146-0.353,0.191
			s-0.25,0.068-0.353,0.068h-0.613c-0.583,0-1.051-0.168-1.402-0.504c-0.354-0.336-0.529-0.764-0.529-1.282v-0.093
			c0-0.519,0.176-0.943,0.529-1.274c0.354-0.33,0.82-0.496,1.402-0.496h2.022c0.104,0,0.154-0.051,0.154-0.153l-0.017-0.61
			c-0.01-0.458-0.166-0.837-0.468-1.138s-0.687-0.451-1.157-0.451c-0.397,0-0.74,0.134-1.026,0.397
			c-0.164,0.144-0.281,0.265-0.353,0.367s-0.133,0.153-0.185,0.153c-0.031,0-0.056-0.006-0.076-0.017l-0.644-0.335
			c-0.063-0.031-0.092-0.066-0.092-0.107c0-0.123,0.056-0.26,0.166-0.411c0.112-0.153,0.271-0.298,0.475-0.437
			c0.204-0.138,0.451-0.252,0.741-0.344c0.291-0.091,0.618-0.137,0.984-0.137c0.824,0,1.477,0.224,1.955,0.672
			c0.479,0.447,0.718,1.043,0.718,1.787v4.261C144.98,70.684,144.931,70.734,144.83,70.734z M143.958,67.955
			c0-0.102-0.051-0.152-0.154-0.152h-2.025c-0.257,0-0.472,0.086-0.646,0.26s-0.26,0.388-0.26,0.642v0.244
			c0,0.255,0.089,0.471,0.268,0.649c0.18,0.178,0.392,0.268,0.638,0.268h0.614c0.613,0,1.131-0.438,1.549-1.313l0.017-0.321V67.955z
			"/>
		<path fill="#FFFFFF" d="M147.854,70.734h-0.722c-0.101,0-0.149-0.051-0.149-0.152v-9.301c0-0.103,0.05-0.153,0.149-0.153h0.722
			c0.102,0,0.151,0.051,0.151,0.153v9.301C148.004,70.684,147.954,70.734,147.854,70.734z"/>
		<path fill="#FFFFFF" d="M155.121,70.872c-0.285,0-0.565-0.062-0.84-0.185c-0.275-0.121-0.519-0.291-0.729-0.511
			c-0.211-0.219-0.381-0.48-0.512-0.786s-0.196-0.642-0.196-1.009v-3.375c0-0.102-0.051-0.153-0.152-0.153h-0.886
			c-0.101,0-0.151-0.051-0.151-0.152v-0.29l1.718-1.817l0.104-0.046h0.241c0.101,0,0.15,0.052,0.15,0.152v1.13
			c0,0.102,0.051,0.152,0.153,0.152h1.114c0.102,0,0.152,0.052,0.152,0.152V64.7c0,0.102-0.051,0.153-0.152,0.153h-1.114
			c-0.104,0-0.153,0.051-0.153,0.152v3.375c0,0.357,0.112,0.693,0.336,1.01c0.082,0.111,0.206,0.207,0.375,0.289
			c0.168,0.082,0.362,0.178,0.588,0.29c0.081,0.031,0.122,0.082,0.122,0.153v0.596C155.289,70.82,155.232,70.872,155.121,70.872z"/>
		<path fill="#FFFFFF" d="M161.889,70.734h-0.722c-0.101,0-0.149-0.051-0.149-0.152v-4.107c0-0.214-0.045-0.42-0.132-0.619
			c-0.087-0.198-0.202-0.371-0.347-0.519s-0.318-0.265-0.523-0.353c-0.207-0.086-0.423-0.129-0.648-0.129
			c-0.236,0-0.455,0.043-0.655,0.129c-0.2,0.087-0.373,0.201-0.517,0.344c-0.146,0.143-0.258,0.313-0.34,0.512
			s-0.123,0.41-0.123,0.635v4.107c0,0.102-0.049,0.152-0.149,0.152h-0.723c-0.101,0-0.151-0.051-0.151-0.152v-9.301
			c0-0.103,0.051-0.153,0.151-0.153h0.723c0.101,0,0.149,0.051,0.149,0.153v3.451c0,0.112,0.037,0.168,0.106,0.168
			c0.052,0,0.113-0.032,0.185-0.1c0.071-0.066,0.164-0.15,0.276-0.252c0.093-0.07,0.179-0.14,0.261-0.206
			c0.082-0.065,0.17-0.125,0.268-0.175c0.097-0.05,0.209-0.094,0.337-0.13c0.128-0.035,0.278-0.054,0.452-0.054
			c0.337,0,0.654,0.063,0.949,0.191c0.297,0.127,0.553,0.301,0.767,0.521c0.215,0.219,0.386,0.48,0.514,0.786
			c0.128,0.305,0.191,0.636,0.191,0.992v4.108C162.039,70.684,161.989,70.734,161.889,70.734z"/>
		<path fill="#FFFFFF" d="M165.139,61.632c0,0.183-0.065,0.343-0.197,0.481c-0.133,0.137-0.295,0.205-0.489,0.205
			c-0.183,0-0.338-0.063-0.466-0.19c-0.129-0.127-0.191-0.293-0.191-0.496c0-0.184,0.066-0.341,0.199-0.474s0.285-0.198,0.458-0.198
			c0.203,0,0.369,0.063,0.496,0.19C165.076,61.277,165.139,61.438,165.139,61.632z M164.821,70.734H164.1
			c-0.101,0-0.15-0.051-0.15-0.152v-6.445c0-0.102,0.05-0.152,0.15-0.152h0.722c0.1,0,0.15,0.052,0.15,0.152v6.445
			C164.972,70.684,164.921,70.734,164.821,70.734z"/>
		<path fill="#FFFFFF" d="M172.167,70.734h-0.723c-0.101,0-0.15-0.051-0.15-0.152v-4.107c0-0.214-0.043-0.42-0.131-0.619
			c-0.087-0.198-0.203-0.371-0.347-0.519c-0.146-0.147-0.318-0.265-0.524-0.353c-0.205-0.086-0.421-0.129-0.647-0.129
			c-0.236,0-0.455,0.043-0.654,0.129c-0.201,0.087-0.373,0.201-0.518,0.344c-0.144,0.143-0.257,0.313-0.339,0.512
			c-0.083,0.199-0.124,0.41-0.124,0.635v4.107c0,0.102-0.05,0.152-0.149,0.152h-0.723c-0.101,0-0.149-0.051-0.149-0.152v-6.445
			c0-0.102,0.05-0.152,0.149-0.152h0.558c0.1,0,0.149,0.052,0.149,0.152v0.611c0,0.111,0.04,0.168,0.12,0.168
			c0.051,0,0.112-0.033,0.184-0.1c0.072-0.065,0.164-0.149,0.276-0.252c0.175-0.142,0.351-0.273,0.529-0.396
			c0.178-0.123,0.452-0.185,0.819-0.185c0.357,0,0.689,0.062,0.996,0.185c0.308,0.122,0.575,0.292,0.806,0.511
			c0.229,0.219,0.411,0.481,0.544,0.787c0.133,0.307,0.199,0.641,0.199,1.008v4.108C172.316,70.684,172.268,70.734,172.167,70.734z"
			/>
		<path fill="#FFFFFF" d="M179.785,70.612c0,0.081-0.057,0.122-0.168,0.122h-0.916l-0.137-0.076l-2.107-3.451
			c-0.031-0.063-0.072-0.092-0.123-0.092s-0.092,0.021-0.122,0.061l-0.842,0.855v2.551c0,0.102-0.051,0.152-0.155,0.152h-0.744
			c-0.102,0-0.152-0.051-0.152-0.152v-9.301c0-0.103,0.051-0.153,0.152-0.153h0.744c0.104,0,0.155,0.051,0.155,0.153v5.254
			c0,0.111,0.042,0.167,0.125,0.167c0.05,0,0.097-0.021,0.137-0.062L178,64.03l0.107-0.046h0.84c0.111,0,0.167,0.046,0.167,0.137
			c0,0.041-0.021,0.082-0.062,0.122l-1.863,1.879c-0.03,0.03-0.045,0.065-0.045,0.106c0,0.03,0.004,0.057,0.015,0.076l2.597,4.2
			C179.775,70.546,179.785,70.582,179.785,70.612z"/>
		<path fill="#FFFFFF" d="M182.184,61.632c0,0.183-0.066,0.343-0.198,0.481c-0.132,0.137-0.296,0.205-0.488,0.205
			c-0.185,0-0.339-0.063-0.466-0.19c-0.127-0.127-0.191-0.293-0.191-0.496c0-0.184,0.066-0.341,0.199-0.474
			c0.131-0.133,0.285-0.198,0.458-0.198c0.203,0,0.368,0.063,0.496,0.19C182.119,61.277,182.184,61.438,182.184,61.632z
			 M181.864,70.734h-0.722c-0.101,0-0.15-0.051-0.15-0.152v-6.445c0-0.102,0.05-0.152,0.15-0.152h0.722
			c0.101,0,0.15,0.052,0.15,0.152v6.445C182.015,70.684,181.965,70.734,181.864,70.734z"/>
		<path fill="#FFFFFF" d="M189.21,70.734h-0.722c-0.102,0-0.15-0.051-0.15-0.152v-4.107c0-0.214-0.044-0.42-0.131-0.619
			c-0.088-0.198-0.204-0.371-0.347-0.519c-0.145-0.147-0.318-0.265-0.524-0.353c-0.206-0.086-0.421-0.129-0.646-0.129
			c-0.237,0-0.455,0.043-0.655,0.129c-0.2,0.087-0.373,0.201-0.517,0.344c-0.145,0.143-0.258,0.313-0.34,0.512
			s-0.123,0.41-0.123,0.635v4.107c0,0.102-0.05,0.152-0.149,0.152h-0.724c-0.1,0-0.149-0.051-0.149-0.152v-6.445
			c0-0.102,0.05-0.152,0.149-0.152h0.558c0.1,0,0.149,0.052,0.149,0.152v0.611c0,0.111,0.04,0.168,0.12,0.168
			c0.052,0,0.113-0.033,0.186-0.1c0.07-0.065,0.163-0.149,0.275-0.252c0.175-0.142,0.351-0.273,0.529-0.396
			c0.179-0.123,0.452-0.185,0.82-0.185c0.356,0,0.688,0.062,0.995,0.185c0.307,0.122,0.574,0.292,0.805,0.511
			c0.229,0.219,0.411,0.481,0.544,0.787c0.132,0.307,0.199,0.641,0.199,1.008v4.108C189.361,70.684,189.311,70.734,189.21,70.734z"
			/>
		<path fill="#FFFFFF" d="M196.273,71.091c-0.36-0.339-0.829-0.509-1.408-0.509h-1.932c-0.367-0.165-0.549-0.412-0.549-0.741
			c0-0.298,0.188-0.545,0.563-0.741c0.081,0.01,0.161,0.019,0.243,0.023s0.162,0.007,0.244,0.007c0.396,0,0.754-0.063,1.079-0.19
			s0.604-0.306,0.837-0.534c0.233-0.229,0.416-0.494,0.547-0.794c0.132-0.301,0.198-0.629,0.198-0.985v-1.771h0.25
			c0.104,0,0.153-0.052,0.153-0.153v-0.565c0-0.102-0.051-0.152-0.153-0.152h-0.4h-0.236h-0.328c-0.102,0-1.694,0-2.071,0
			c-0.345,0-0.67,0.063-0.974,0.191c-0.305,0.127-0.572,0.303-0.8,0.527c-0.229,0.224-0.409,0.488-0.541,0.794
			c-0.132,0.305-0.198,0.631-0.198,0.978v0.151c0,0.296,0.109,0.638,0.185,0.851c0.181,0.511,0.584,0.887,0.717,1.028
			s0.197,0.229,0.197,0.261c0,0.041-0.02,0.088-0.061,0.145c-0.041,0.056-0.084,0.127-0.13,0.214s-0.089,0.188-0.13,0.306
			s-0.062,0.252-0.062,0.405c0,0.233,0.052,0.427,0.153,0.58c0.102,0.151,0.152,0.271,0.152,0.351c0,0.051-0.06,0.12-0.176,0.207
			c-0.117,0.086-0.272,0.227-0.466,0.42c-0.123,0.11-0.217,0.258-0.282,0.441c-0.067,0.184-0.1,0.377-0.1,0.581
			c0,0.244,0.048,0.473,0.145,0.687c0.098,0.215,0.229,0.4,0.396,0.559c0.168,0.158,0.371,0.281,0.61,0.375
			c0.239,0.091,0.495,0.137,0.769,0.137h2.148c0.285,0,0.546-0.046,0.785-0.137c0.238-0.092,0.443-0.217,0.617-0.373
			c0.172-0.157,0.307-0.346,0.402-0.563c0.096-0.218,0.145-0.459,0.145-0.723C196.813,71.859,196.634,71.43,196.273,71.091z
			 M191.82,66.625v-0.152c0-0.224,0.041-0.435,0.121-0.634c0.082-0.198,0.194-0.369,0.337-0.512
			c0.143-0.142,0.313-0.257,0.511-0.343c0.199-0.088,0.415-0.131,0.648-0.131c0.224,0,0.438,0.043,0.643,0.131
			c0.204,0.086,0.376,0.203,0.52,0.352c0.143,0.146,0.256,0.32,0.342,0.52c0.087,0.198,0.131,0.404,0.131,0.617v0.152
			c0,0.225-0.044,0.436-0.131,0.634c-0.086,0.198-0.2,0.372-0.342,0.519c-0.144,0.148-0.315,0.266-0.52,0.353
			c-0.204,0.086-0.418,0.129-0.643,0.129c-0.233,0-0.447-0.043-0.642-0.129c-0.192-0.087-0.364-0.203-0.511-0.353
			c-0.147-0.146-0.262-0.32-0.344-0.519C191.86,67.061,191.82,66.85,191.82,66.625z M195.521,73.032
			c-0.177,0.178-0.394,0.268-0.647,0.268h-2.153c-0.255,0-0.469-0.086-0.642-0.26c-0.173-0.173-0.259-0.397-0.259-0.672
			c0-0.265,0.086-0.483,0.259-0.657s0.387-0.26,0.642-0.26h2.153c0.254,0,0.471,0.086,0.647,0.26
			c0.18,0.173,0.269,0.393,0.269,0.657S195.701,72.854,195.521,73.032z"/>
		<path fill="#FFFFFF" d="M198.921,70.215c0,0.214-0.071,0.393-0.214,0.535s-0.325,0.213-0.549,0.213
			c-0.204,0-0.377-0.074-0.52-0.221c-0.143-0.148-0.214-0.323-0.214-0.527s0.071-0.379,0.214-0.527
			c0.143-0.146,0.315-0.221,0.52-0.221c0.224,0,0.406,0.071,0.549,0.213C198.85,69.823,198.921,70.001,198.921,70.215z"/>
		<path fill="#FFFFFF" d="M201.96,70.215c0,0.214-0.071,0.393-0.214,0.535s-0.326,0.213-0.549,0.213
			c-0.204,0-0.377-0.074-0.521-0.221c-0.143-0.148-0.214-0.323-0.214-0.527s0.071-0.379,0.214-0.527
			c0.143-0.146,0.315-0.221,0.521-0.221c0.224,0,0.406,0.071,0.549,0.213C201.889,69.823,201.96,70.001,201.96,70.215z"/>
		<path fill="#FFFFFF" d="M205,70.215c0,0.214-0.072,0.393-0.214,0.535c-0.144,0.143-0.326,0.213-0.55,0.213
			c-0.204,0-0.377-0.074-0.52-0.221c-0.143-0.148-0.214-0.323-0.214-0.527s0.071-0.379,0.214-0.527
			c0.144-0.146,0.315-0.221,0.52-0.221c0.224,0,0.406,0.071,0.55,0.213C204.928,69.823,205,70.001,205,70.215z"/>
	</g>
</g>
</svg>
